<?xml version="1.0" encoding="UTF-8" standalone="no"?>
<svg
   viewBox="0 0 143 143"
   version="1.1"
   id="svg8"
   width="143"
   height="143"
   xmlns="http://www.w3.org/2000/svg"
   xmlns:svg="http://www.w3.org/2000/svg">
  <defs
     id="defs8" />
  <circle
     fill="#ffcc4d"
     cx="71.5"
     cy="71.5"
     id="circle1"
     style="stroke-width:3.91665"
     r="70.5" />
  <ellipse
     fill="#664500"
     cx="71.5"
     cy="102.83334"
     id="circle2"
     rx="11.75"
     ry="11.749999"
     style="stroke-width:3.91665" />
  <path
     fill="#664500"
     d="m 68.805333,66.063666 c -0.689333,-0.560081 -1.672418,-0.575751 -2.389167,-0.0548 -0.04699,0.03544 -4.935,3.532834 -14.499499,3.532834 -9.560583,0 -14.4525,-3.497584 -14.491668,-3.525 -0.716749,-0.536584 -1.703749,-0.520919 -2.393082,0.03544 -0.697166,0.556166 -0.932167,1.511834 -0.571833,2.3265 0.235009,0.52875 5.875001,12.913251 17.456583,12.913251 11.585498,0 17.221583,-12.384501 17.456584,-12.913251 0.360334,-0.81075 0.125327,-1.758585 -0.567918,-2.314749 z m 39.166667,0 c -0.68933,-0.560081 -1.6685,-0.579667 -2.38917,-0.0548 -0.047,0.03544 -4.93891,3.532831 -14.499497,3.532831 -9.556666,0 -14.4525,-3.497581 -14.491666,-3.525 -0.716752,-0.536581 -1.699833,-0.520916 -2.393084,0.03544 -0.697167,0.556166 -0.932168,1.511834 -0.571834,2.3265 0.235009,0.52875 5.875001,12.913252 17.456584,12.913252 11.585497,0 17.221587,-12.384502 17.456587,-12.913252 0.36033,-0.81075 0.12532,-1.758585 -0.56792,-2.314748 z"
     id="path2"
     style="stroke-width:3.91665" />
  <path
     fill="#ffac33"
     d="m 135.85083,50.091498 c 0.0157,-0.172372 0.0901,-0.301612 0.0901,-0.481751 0,-2.953166 -2.14633,-4.652997 -4.79792,-4.652997 H 117.1135 l 16.75942,-23.472584 c 0.80683,-1.108417 1.1045,-1.77425 1.1045,-3.176416 0,-2.87875 -2.50667,-3.32525 -3.46625,-3.32525 h -20.95025 l -0.12533,-2.694667 c 0,0 -5.51859,3.25475 -5.88675,3.478 -0.36817,0.223252 -1.97792,1.457 -1.97792,3.86575 0,2.953166 2.1385,4.649084 4.79792,4.649084 h 12.33358 L 103.0135,47.753249 c -0.36817,0.591416 -0.95567,1.695916 -0.95567,2.878748 0,2.436168 1.98967,3.619001 4.35142,3.619001 H 131.143 c 1.0105,0 2.01708,-0.297675 2.66725,-0.689333 l 5.88675,-3.478 h -3.84617 z"
     id="path3"
     style="stroke-width:3.91665" />
  <path
     fill="#2a6797"
     d="m 125.43642,20.912334 h -12.33359 c -2.65941,0 -4.79791,-1.695918 -4.79791,-4.649084 0,-2.953167 2.1385,-4.653 4.79791,-4.653 h 24.14234 c 0.95958,0 3.46625,0.442583 3.46625,3.321333 0,1.402167 -0.29767,2.068 -1.1045,3.176417 L 122.8475,41.580581 h 14.0295 c 2.65158,0 4.79792,1.695918 4.79792,4.649084 0,2.953167 -2.14634,4.649082 -4.79792,4.649082 h -24.73375 c -2.36175,0 -4.35142,-1.182832 -4.35142,-3.618998 0,-1.182833 0.5875,-2.287334 0.95567,-2.878751 z"
     id="path4"
     style="stroke-width:3.91665" />
  <path
     fill="#ffac33"
     d="m 98.470165,30.296665 c 0.01166,-0.129259 0.0705,-0.227172 0.0705,-0.360328 0,-2.209001 -1.605832,-3.481919 -3.591581,-3.481919 h -10.5045 L 96.989665,8.880333 c 0.611002,-0.8303333 0.830336,-1.3277495 0.830336,-2.3734999 0,-2.1541666 -1.876084,-2.487083 -2.596751,-2.487083 H 79.540915 l -0.09401,-2.0170834 c 0,0 -4.132083,2.4361666 -4.40625,2.6045832 -0.274166,0.1684164 -1.4805,1.09275 -1.4805,2.8944166 0,2.2089998 1.601918,3.4819165 3.591582,3.4819165 h 9.231585 L 73.889164,28.557666 c -0.274167,0.442583 -0.716749,1.269 -0.716749,2.154169 0,1.825166 1.488333,2.706416 3.258667,2.706416 h 18.517999 c 0.755917,0 1.507916,-0.223268 1.997501,-0.517001 l 4.406248,-2.604585 z"
     id="path5"
     style="stroke-width:3.91665" />
  <path
     fill="#2a6797"
     d="m 90.676,8.4534165 h -9.231585 c -1.989664,0 -3.591581,-1.269 -3.591581,-3.4819167 0,-2.2089998 1.601917,-3.4819166 3.591581,-3.4819166 h 18.07542 c 0.720665,0 2.596745,0.332917 2.596745,2.4870835 0,1.0496664 -0.22324,1.5470832 -0.82641,2.3774165 L 88.745084,23.928167 h 10.5045 c 1.977916,0 3.583746,1.269 3.583746,3.481917 0,2.212916 -1.60583,3.481916 -3.59158,3.481916 H 80.723751 c -1.770334,0 -3.258667,-0.885165 -3.258667,-2.706416 0,-0.885169 0.442582,-1.711583 0.716749,-2.154169 z"
     id="path6"
     style="stroke-width:3.91665" />
  <path
     fill="#ffac33"
     d="m 70.485584,41.831249 c 0.01166,-0.109627 0.05876,-0.191895 0.05876,-0.309411 0,-1.891751 -1.37475,-2.980585 -3.074584,-2.980585 h -8.98875 l 10.739497,-15.04 c 0.517001,-0.708915 0.708918,-1.135833 0.708918,-2.032748 0,-1.844752 -1.605832,-2.130669 -2.22075,-2.130669 H 54.286259 l -0.08224,-1.727249 -3.77175,2.228584 c -0.235009,0.144907 -1.269,0.932167 -1.269,2.479249 0,1.891751 1.370835,2.980583 3.074584,2.980583 H 60.13777 L 49.445249,40.339 c -0.235009,0.379911 -0.614914,1.088832 -0.614914,1.844749 0,1.562749 1.27683,2.318666 2.788665,2.318666 h 15.850751 c 0.646249,0 1.292498,-0.191868 1.707664,-0.442582 l 3.77175,-2.228584 z"
     id="path7"
     style="stroke-width:3.91665" />
  <path
     fill="#2a6797"
     d="m 63.811585,23.137 h -7.899919 c -1.703749,0 -3.074583,-1.088834 -3.074583,-2.980583 0,-1.89175 1.370834,-2.980584 3.074583,-2.980584 h 15.470835 c 0.614914,0 2.22075,0.285915 2.22075,2.130666 0,0.896917 -0.187991,1.323835 -0.708918,2.032751 L 62.154835,36.379251 h 8.98875 c 1.69983,0 3.07458,1.088832 3.07458,2.98058 0,1.891751 -1.37475,2.980585 -3.07458,2.980585 H 55.292834 c -1.511835,0 -2.788669,-0.755917 -2.788669,-2.318666 0,-0.755917 0.376001,-1.464833 0.614918,-1.844752 z"
     id="path8"
     style="stroke-width:3.91665" />
</svg>
