<?xml version="1.0" encoding="UTF-8" standalone="no"?>
<svg
   viewBox="0 0 54 54"
   version="1.1"
   id="svg8"
   width="54"
   height="54"
   xmlns="http://www.w3.org/2000/svg"
   xmlns:svg="http://www.w3.org/2000/svg">
  <defs
     id="defs8" />
  <circle
     fill="#ffcc4d"
     cx="27"
     cy="27"
     id="circle1"
     style="stroke-width:1.44444"
     r="26" />
  <ellipse
     fill="#664500"
     cx="27"
     cy="38.555557"
     id="circle2"
     rx="4.3333335"
     ry="4.333333"
     style="stroke-width:1.44444" />
  <path
     fill="#664500"
     d="m 26.006222,24.995111 c -0.254222,-0.206555 -0.616778,-0.212334 -0.881111,-0.02021 -0.01733,0.01307 -1.82,1.302889 -5.347333,1.302889 -3.525889,0 -5.33,-1.289889 -5.344445,-1.3 C 14.169,24.779901 13.805,24.785678 13.550778,24.99086 c -0.257111,0.205111 -0.343778,0.557556 -0.210889,0.858 0.08667,0.195 2.166667,4.762334 6.437889,4.762334 4.272666,0 6.351222,-4.567334 6.437889,-4.762334 0.132889,-0.299 0.04622,-0.648556 -0.209445,-0.853666 z m 14.444445,0 c -0.254223,-0.206555 -0.615334,-0.213778 -0.881111,-0.02021 -0.01733,0.01307 -1.821445,1.302888 -5.347334,1.302888 -3.524444,0 -5.33,-1.289888 -5.344444,-1.3 -0.264334,-0.197888 -0.626889,-0.192111 -0.882556,0.01307 -0.257111,0.205111 -0.343778,0.557556 -0.210889,0.858 0.08667,0.195 2.166667,4.762334 6.437889,4.762334 4.272667,0 6.351222,-4.567334 6.437889,-4.762334 0.132889,-0.299 0.04622,-0.648556 -0.209444,-0.853666 z"
     id="path2"
     style="stroke-width:1.44444" />
  <path
     fill="#ffac33"
     d="m 50.732222,19.104666 c 0.0058,-0.06357 0.03322,-0.111233 0.03322,-0.177667 0,-1.089111 -0.791556,-1.715999 -1.769444,-1.715999 H 43.822 l 6.180778,-8.6565559 c 0.297555,-0.4087779 0.407333,-0.6543331 0.407333,-1.1714442 0,-1.0616667 -0.924444,-1.2263334 -1.278333,-1.2263334 h -7.726334 l -0.04622,-0.9937778 c 0,0 -2.035223,1.2003334 -2.171,1.2826667 -0.135778,0.082334 -0.729445,0.5373333 -0.729445,1.4256667 0,1.089111 0.788667,1.7145558 1.769445,1.7145558 h 4.548555 L 38.622,18.242333 c -0.135778,0.218111 -0.352444,0.625444 -0.352444,1.061666 0,0.898445 0.733777,1.334667 1.604777,1.334667 H 48.996 c 0.372667,0 0.743889,-0.109781 0.983667,-0.254222 l 2.171,-1.282667 h -1.418445 z"
     id="path3"
     style="stroke-width:1.44444" />
  <path
     fill="#2a6797"
     d="m 46.891444,8.3435559 h -4.548555 c -0.980778,0 -1.769445,-0.6254449 -1.769445,-1.714556 0,-1.0891112 0.788667,-1.716 1.769445,-1.716 h 8.903555 c 0.353889,0 1.278334,0.1632222 1.278334,1.2248888 0,0.5171112 -0.109778,0.7626668 -0.407334,1.1714445 l -6.180777,8.6565548 h 5.174 c 0.977889,0 1.769444,0.625445 1.769444,1.714556 0,1.089111 -0.791555,1.714555 -1.769444,1.714555 H 41.989 c -0.871,0 -1.604778,-0.436222 -1.604778,-1.334666 0,-0.436222 0.216667,-0.843556 0.352445,-1.061667 z"
     id="path4"
     style="stroke-width:1.44444" />
  <path
     fill="#ffac33"
     d="m 36.946444,11.804444 c 0.0043,-0.04767 0.026,-0.08378 0.026,-0.132887 0,-0.814667 -0.592222,-1.284112 -1.324555,-1.284112 h -3.874 l 4.626555,-6.4812229 c 0.225334,-0.3062222 0.306223,-0.4896665 0.306223,-0.8753333 0,-0.7944444 -0.691889,-0.9172221 -0.957667,-0.9172221 h -5.783556 l -0.03467,-0.7438889 c 0,0 -1.523889,0.8984444 -1.625,0.9605555 -0.101111,0.062111 -0.546,0.403 -0.546,1.0674444 0,0.8146666 0.590778,1.284111 1.324555,1.284111 h 3.404556 L 27.88111,11.163111 c -0.101111,0.163222 -0.264333,0.468 -0.264333,0.794445 0,0.673111 0.548889,0.998111 1.201778,0.998111 h 6.829333 c 0.278778,0 0.556111,-0.08234 0.736667,-0.190667 l 1.625,-0.960556 z"
     id="path5"
     style="stroke-width:1.44444" />
  <path
     fill="#2a6797"
     d="m 34.072,3.7487777 h -3.404556 c -0.733777,0 -1.324555,-0.468 -1.324555,-1.2841111 0,-0.8146666 0.590778,-1.2841111 1.324555,-1.2841111 h 6.666112 c 0.265777,0 0.957666,0.1227779 0.957666,0.9172223 0,0.387111 -0.08233,0.5705555 -0.304778,0.8767777 l -4.626555,6.4812224 h 3.874 c 0.729444,0 1.321667,0.468 1.321667,1.2841111 0,0.816111 -0.592223,1.284111 -1.324556,1.284111 h -6.829333 c -0.652889,0 -1.201778,-0.326444 -1.201778,-0.998111 0,-0.326445 0.163222,-0.631222 0.264333,-0.794445 z"
     id="path6"
     style="stroke-width:1.44444" />
  <path
     fill="#ffac33"
     d="m 26.625889,16.058333 c 0.0043,-0.04043 0.02167,-0.07077 0.02167,-0.114109 0,-0.697667 -0.507,-1.099223 -1.133889,-1.099223 h -3.315 l 3.960666,-5.5466664 c 0.190667,-0.2614441 0.261445,-0.418889 0.261445,-0.7496662 0,-0.6803338 -0.592222,-0.7857787 -0.819,-0.7857787 H 20.65167 l -0.03033,-0.6369995 -1.391,0.8218892 c -0.08667,0.053441 -0.468,0.343778 -0.468,0.9143331 0,0.6976669 0.505556,1.0992221 1.133889,1.0992221 h 2.913445 L 18.866333,15.508 c -0.08667,0.140109 -0.226777,0.401555 -0.226777,0.680333 0,0.576333 0.470888,0.855111 1.028444,0.855111 h 5.845667 c 0.238333,0 0.476666,-0.07076 0.629777,-0.163222 l 1.391,-0.821889 z"
     id="path7"
     style="stroke-width:1.44444" />
  <path
     fill="#2a6797"
     d="m 24.164556,9.164 h -2.913445 c -0.628333,0 -1.133889,-0.4015559 -1.133889,-1.0992221 0,-0.6976668 0.505556,-1.0992224 1.133889,-1.0992224 h 5.705556 c 0.226777,0 0.819,0.1054438 0.819,0.7857776 0,0.3307779 -0.06933,0.4882228 -0.261445,0.7496669 l -3.960666,5.546667 h 3.315 c 0.626888,0 1.133888,0.401555 1.133888,1.099221 0,0.697667 -0.507,1.099223 -1.133888,1.099223 h -5.845667 c -0.557556,0 -1.028445,-0.278778 -1.028445,-0.855111 0,-0.278778 0.138667,-0.540222 0.226778,-0.680334 z"
     id="path8"
     style="stroke-width:1.44444" />
</svg>
